<svg width="40" height="41" viewBox="0 0 40 41" fill="none" xmlns="http://www.w3.org/2000/svg">
<rect y="0.842773" width="40" height="40" rx="20" fill="white"/>
<path d="M20 13.4693C22.3855 13.4693 22.7108 13.4693 23.6867 13.4693C24.5542 13.4693 24.988 13.6861 25.3133 13.7946C25.747 14.0114 26.0723 14.1199 26.3976 14.4452C26.7229 14.7705 26.9398 15.0958 27.0482 15.5295C27.1566 15.8548 27.2651 16.2886 27.3735 17.156C27.3735 18.1319 27.3735 18.3488 27.3735 20.8428C27.3735 23.3368 27.3735 23.5536 27.3735 24.5295C27.3735 25.397 27.1566 25.8307 27.0482 26.156C26.8313 26.5898 26.7229 26.9151 26.3976 27.2404C26.0723 27.5657 25.747 27.7825 25.3133 27.891C24.988 27.9994 24.5542 28.1078 23.6867 28.2163C22.7108 28.2163 22.494 28.2163 20 28.2163C17.506 28.2163 17.2892 28.2163 16.3133 28.2163C15.4458 28.2163 15.012 27.9994 14.6867 27.891C14.253 27.6741 13.9277 27.5657 13.6024 27.2404C13.2771 26.9151 13.0602 26.5898 12.9518 26.156C12.8434 25.8307 12.7349 25.397 12.6265 24.5295C12.6265 23.5536 12.6265 23.3368 12.6265 20.8428C12.6265 18.3488 12.6265 18.1319 12.6265 17.156C12.6265 16.2886 12.8434 15.8548 12.9518 15.5295C13.1687 15.0958 13.2771 14.7705 13.6024 14.4452C13.9277 14.1199 14.253 13.903 14.6867 13.7946C15.012 13.6861 15.4458 13.5777 16.3133 13.4693C17.2892 13.4693 17.6145 13.4693 20 13.4693ZM20 11.8428C17.506 11.8428 17.2892 11.8428 16.3133 11.8428C15.3374 11.8428 14.6867 12.0596 14.1446 12.2765C13.6024 12.4934 13.0602 12.8187 12.5181 13.3608C11.9759 13.903 11.759 14.3368 11.4337 14.9874C11.2169 15.5295 11.1084 16.1801 11 17.156C11 18.1319 11 18.4572 11 20.8428C11 23.3368 11 23.5536 11 24.5295C11 25.5054 11.2169 26.156 11.4337 26.6982C11.6506 27.2404 11.9759 27.7825 12.5181 28.3247C13.0602 28.8669 13.494 29.0837 14.1446 29.409C14.6867 29.6259 15.3374 29.7343 16.3133 29.8428C17.2892 29.8428 17.6145 29.8428 20 29.8428C22.3855 29.8428 22.7108 29.8428 23.6867 29.8428C24.6627 29.8428 25.3133 29.6259 25.8554 29.409C26.3976 29.1922 26.9398 28.8669 27.4819 28.3247C28.0241 27.7825 28.241 27.3488 28.5663 26.6982C28.7831 26.156 28.8916 25.5054 29 24.5295C29 23.5536 29 23.2283 29 20.8428C29 18.4572 29 18.1319 29 17.156C29 16.1801 28.7831 15.5295 28.5663 14.9874C28.3494 14.4452 28.0241 13.903 27.4819 13.3608C26.9398 12.8187 26.506 12.6018 25.8554 12.2765C25.3133 12.0596 24.6627 11.9512 23.6867 11.8428C22.7108 11.8428 22.494 11.8428 20 11.8428Z" fill="#0C1518"/>
<path d="M20 16.1801C17.3976 16.1801 15.3373 18.2404 15.3373 20.8428C15.3373 23.4452 17.3976 25.5054 20 25.5054C22.6024 25.5054 24.6627 23.4452 24.6627 20.8428C24.6627 18.2404 22.6024 16.1801 20 16.1801ZM20 23.8789C18.3735 23.8789 16.9639 22.5777 16.9639 20.8428C16.9639 19.2163 18.2651 17.8066 20 17.8066C21.6265 17.8066 23.0361 19.1078 23.0361 20.8428C23.0361 22.4693 21.6265 23.8789 20 23.8789Z" fill="#0C1518"/>
<path d="M24.7711 17.156C25.3699 17.156 25.8554 16.6706 25.8554 16.0717C25.8554 15.4728 25.3699 14.9874 24.7711 14.9874C24.1722 14.9874 23.6867 15.4728 23.6867 16.0717C23.6867 16.6706 24.1722 17.156 24.7711 17.156Z" fill="#0C1518"/>
</svg>
