<svg width="40" height="41" viewBox="0 0 40 41" fill="none" xmlns="http://www.w3.org/2000/svg">
<rect y="0.842773" width="40" height="40" rx="20" fill="white"/>
<path d="M12.0384 19.8002C16.9941 17.6834 20.2987 16.2879 21.9521 15.6136C26.6731 13.6885 27.6541 13.354 28.2935 13.3429C28.4341 13.3406 28.7485 13.3747 28.9522 13.5368C29.1242 13.6736 29.1715 13.8584 29.1941 13.9881C29.2168 14.1178 29.245 14.4133 29.2226 14.6442C28.9667 17.2796 27.8598 23.675 27.2966 26.6266C27.0583 27.8756 26.5891 28.2944 26.1348 28.3353C25.1476 28.4244 24.398 27.6957 23.4418 27.0812C21.9457 26.1197 21.1004 25.5211 19.6481 24.5828C17.9697 23.4984 19.0577 22.9024 20.0143 21.9284C20.2646 21.6735 24.6142 17.7947 24.6984 17.4429C24.7089 17.3989 24.7187 17.2348 24.6193 17.1482C24.5199 17.0616 24.3732 17.0912 24.2673 17.1148C24.1172 17.1482 21.7271 18.697 17.0968 21.7614C16.4184 22.2181 15.8038 22.4406 15.2533 22.429C14.6463 22.4161 13.4787 22.0925 12.6107 21.8159C11.5461 21.4766 10.7 21.2972 10.7737 20.721C10.8121 20.4209 11.2336 20.114 12.0384 19.8002Z" fill="#0C1518"/>
</svg>
