<svg width="16" height="15" viewBox="0 0 16 15" fill="none" xmlns="http://www.w3.org/2000/svg">
<path d="M2.16667 15C1.70833 15 1.31611 14.8369 0.99 14.5108C0.663889 14.1847 0.500556 13.7922 0.5 13.3333V1.66667C0.5 1.20833 0.663333 0.816111 0.99 0.49C1.31667 0.163889 1.70889 0.000555556 2.16667 0H7.16667V15H2.16667ZM8.83333 15V7.5H15.5V13.3333C15.5 13.7917 15.3369 14.1842 15.0108 14.5108C14.6847 14.8375 14.2922 15.0006 13.8333 15H8.83333ZM8.83333 5.83333V0H13.8333C14.2917 0 14.6842 0.163333 15.0108 0.49C15.3375 0.816667 15.5006 1.20889 15.5 1.66667V5.83333H8.83333Z" fill="white"/>
</svg>
