<svg width="18" height="19" viewBox="0 0 18 19" fill="none" xmlns="http://www.w3.org/2000/svg">
<path d="M17.75 7.28751C17.7381 6.81126 17.36 6.43251 16.8956 6.38126C16.5616 6.38955 16.228 6.41123 15.8956 6.44626C15.2606 6.51251 14.6181 6.62376 14.1994 6.76813C13.815 6.90063 13.0306 7.25251 12.0219 7.72251C11.4531 7.98751 10.8219 8.28626 10.1606 8.59876C9.65438 8.83813 9.13125 9.08563 8.60563 9.33251C7.395 9.90126 6.175 10.4644 5.145 10.9081C4.12625 11.3469 3.25937 11.6838 2.77125 11.7794C2.16875 11.8975 1.2475 12.0025 0.544375 12.0344C0.481042 12.2177 0.41 12.3979 0.33125 12.575C0.275 12.6875 0.25 12.8125 0.25 12.95C0.253287 13.1965 0.353508 13.4317 0.528968 13.6049C0.704428 13.778 0.94101 13.875 1.1875 13.875C2.94563 13.875 3.74938 13.515 5.31688 12.8119L5.4125 12.7688L13.35 9.19376L13.7337 9.02001C14.8581 8.51001 15.43 8.25001 16.8062 8.25001C17.3375 8.25001 17.7625 7.81876 17.75 7.28751Z" fill="#FF6B00"/>
<path d="M15.8313 5.825L15.9938 5.80875C14.8831 2.8525 12.03 0.75 8.68751 0.75C4.40626 0.75 0.87501 4.29375 0.87501 8.5625V10.1625C0.873748 10.5788 0.824676 10.9936 0.72876 11.3988C1.35751 11.3594 2.12876 11.2681 2.65063 11.1663C3.06126 11.0856 3.86438 10.7787 4.89751 10.3344C5.91813 9.895 7.13001 9.33437 8.34001 8.76687C8.86189 8.52187 9.38439 8.27437 9.89001 8.03562L9.89126 8.035C10.5544 7.72125 11.1894 7.42125 11.7581 7.15625C12.7556 6.69125 13.5731 6.32312 13.9956 6.1775C14.4831 6.00875 15.1819 5.8925 15.8313 5.825ZM10.7725 15.75L10.3975 14.4375H7.28751L7.75001 15.75H10.7725Z" fill="#FF6B00"/>
<path d="M10.0531 13.1875H10.4125C10.9637 13.1875 11.4612 13.5575 11.6131 14.0906L11.9875 15.4C12.0425 15.5869 12.0528 15.7841 12.0176 15.9757C11.9824 16.1673 11.9027 16.348 11.785 16.5031C11.62 16.7206 11.3875 16.8781 11.1287 16.9519L11.3562 17.75C11.4312 18 11.2437 18.25 10.9812 18.25H8.72496C8.62354 18.25 8.52485 18.2171 8.44371 18.1562C8.36257 18.0954 8.30336 18.0099 8.27496 17.9125L8.01496 17H7.74996C7.49292 16.9989 7.24234 16.9194 7.0317 16.7721C6.82106 16.6248 6.66041 16.4167 6.57121 16.1756L6.56871 16.1694L6.10121 14.8437L6.09871 14.8356C6.03606 14.6472 6.01897 14.4466 6.04885 14.2503C6.07872 14.0539 6.15471 13.8675 6.27058 13.7062C6.43656 13.4806 6.67224 13.3158 6.94121 13.2375L6.82246 12.8194L9.59121 11.5719L10.0531 13.1875ZM10.7875 16.375H10.7981C10.8931 16.3725 10.9864 16.3487 11.0711 16.3054C11.1558 16.2622 11.2297 16.2005 11.2875 16.125C11.3457 16.0474 11.385 15.9573 11.4024 15.8618C11.4197 15.7663 11.4146 15.6681 11.3875 15.575L11.0125 14.2625C10.9737 14.1332 10.8945 14.0197 10.7865 13.9387C10.6785 13.8577 10.5474 13.8135 10.4125 13.8125H7.28746C7.18752 13.8135 7.08918 13.8377 7.00022 13.8832C6.91127 13.9288 6.83414 13.9945 6.77496 14.075C6.71692 14.1564 6.67925 14.2505 6.66511 14.3495C6.65097 14.4484 6.66078 14.5494 6.69371 14.6437L7.15621 15.9562C7.16246 15.9737 7.16975 15.991 7.17808 16.0081C7.28371 16.2294 7.50621 16.375 7.74996 16.375H10.7875Z" fill="#FF6B00"/>
</svg>
