<svg width="24" height="25" viewBox="0 0 24 25" fill="none" xmlns="http://www.w3.org/2000/svg">
<g clip-path="url(#clip0_49_1833)">
<path d="M12.75 2.60547C12.75 2.40656 12.671 2.21579 12.5303 2.07514C12.3897 1.93449 12.1989 1.85547 12 1.85547C11.8011 1.85547 11.6103 1.93449 11.4697 2.07514C11.329 2.21579 11.25 2.40656 11.25 2.60547V3.35547H7.6875C7.04103 3.35547 6.42105 3.61228 5.96393 4.0694C5.50681 4.52652 5.25 5.1465 5.25 5.79297V9.91797C5.25 10.5644 5.50681 11.1844 5.96393 11.6415C6.42105 12.0987 7.04103 12.3555 7.6875 12.3555H15.6862L16.065 11.1705C16.1846 10.8656 16.3938 10.6041 16.665 10.4205C16.9384 10.2247 17.2663 10.1198 17.6025 10.1205C17.9971 10.121 18.3779 10.2656 18.6735 10.527C18.724 10.3315 18.7495 10.1285 18.75 9.91797V5.79297C18.75 5.1465 18.4932 4.52652 18.0361 4.0694C17.579 3.61228 16.959 3.35547 16.3125 3.35547H12.75V2.60547ZM6.1875 14.6055H12.5595C12.4395 14.8357 12.3757 15.093 12.375 15.3555C12.3822 15.6864 12.4902 16.0073 12.6845 16.2753C12.8788 16.5433 13.1502 16.7457 13.4625 16.8555L14.745 17.2755C14.9625 17.3452 15.1605 17.466 15.3225 17.628C15.3225 17.655 15.3525 17.682 15.3855 17.7112C15.4066 17.7288 15.4257 17.7487 15.4425 17.7705C15.5461 17.9 15.6249 18.0474 15.675 18.2055L16.0875 19.4805C16.1674 19.7208 16.3025 19.939 16.4819 20.1176C16.6614 20.2962 16.8802 20.4303 17.1209 20.5091C17.3616 20.5879 17.6173 20.6091 17.8677 20.5711C18.118 20.5332 18.356 20.437 18.5625 20.2905C18.4448 20.4964 18.3804 20.7284 18.375 20.9655C18.375 21.0095 18.377 21.0532 18.381 21.0967C18.2546 21.1962 18.1242 21.2905 17.9902 21.3795C16.56 22.332 14.5245 22.8555 12 22.8555C9.4755 22.8555 7.44 22.332 6.00975 21.3795C4.55775 20.412 3.75 19.0087 3.75 17.3805V17.043C3.75 16.3965 4.00681 15.7765 4.46393 15.3194C4.92105 14.8623 5.54103 14.6055 6.1875 14.6055ZM9.375 9.16797C9.20264 9.16797 9.03197 9.13402 8.87273 9.06806C8.71349 9.0021 8.5688 8.90542 8.44692 8.78355C8.32504 8.66167 8.22837 8.51698 8.16241 8.35774C8.09645 8.1985 8.0625 8.02783 8.0625 7.85547C8.0625 7.68311 8.09645 7.51244 8.16241 7.3532C8.22837 7.19396 8.32504 7.04927 8.44692 6.92739C8.5688 6.80551 8.71349 6.70884 8.87273 6.64288C9.03197 6.57692 9.20264 6.54297 9.375 6.54297C9.7231 6.54297 10.0569 6.68125 10.3031 6.92739C10.5492 7.17353 10.6875 7.50737 10.6875 7.85547C10.6875 8.20357 10.5492 8.5374 10.3031 8.78355C10.0569 9.02969 9.7231 9.16797 9.375 9.16797ZM15.9375 7.85547C15.9375 8.20357 15.7992 8.5374 15.5531 8.78355C15.3069 9.02969 14.9731 9.16797 14.625 9.16797C14.2769 9.16797 13.9431 9.02969 13.6969 8.78355C13.4508 8.5374 13.3125 8.20357 13.3125 7.85547C13.3125 7.50737 13.4508 7.17353 13.6969 6.92739C13.9431 6.68125 14.2769 6.54297 14.625 6.54297C14.9731 6.54297 15.3069 6.68125 15.5531 6.92739C15.7992 7.17353 15.9375 7.50737 15.9375 7.85547ZM16.116 16.8637C16.4013 17.1514 16.6162 17.5013 16.7437 17.886L17.1547 19.1482C17.1888 19.2458 17.2523 19.3304 17.3366 19.3903C17.4208 19.4501 17.5216 19.4823 17.625 19.4823C17.7284 19.4823 17.8292 19.4501 17.9134 19.3903C17.9977 19.3304 18.0612 19.2458 18.0952 19.1482L18.5062 17.886C18.6341 17.5023 18.8495 17.1537 19.1355 16.8678C19.4216 16.5819 19.7703 16.3666 20.154 16.239L21.417 15.8287C21.5143 15.7943 21.5985 15.7307 21.658 15.6465C21.7176 15.5622 21.7496 15.4616 21.7496 15.3585C21.7496 15.2553 21.7176 15.1547 21.658 15.0705C21.5985 14.9863 21.5143 14.9226 21.417 14.8882L21.3915 14.8822L20.1292 14.472C19.7454 14.3444 19.3965 14.1292 19.1104 13.8433C18.8242 13.5574 18.6086 13.2087 18.4807 12.825L18.0705 11.5627C18.0366 11.4649 17.9731 11.38 17.8888 11.3199C17.8044 11.2598 17.7034 11.2276 17.5999 11.2276C17.4963 11.2276 17.3953 11.2598 17.311 11.3199C17.2266 11.38 17.1631 11.4649 17.1292 11.5627L16.719 12.825L16.7085 12.8565C16.5801 13.2306 16.3682 13.5705 16.0888 13.8504C15.8094 14.1304 15.4699 14.3429 15.096 14.472L13.833 14.8822C13.7357 14.9166 13.6515 14.9803 13.592 15.0645C13.5324 15.1487 13.5004 15.2493 13.5004 15.3525C13.5004 15.4556 13.5324 15.5562 13.592 15.6404C13.6515 15.7247 13.7357 15.7883 13.833 15.8227L15.096 16.2322C15.4807 16.3605 15.8302 16.5772 16.116 16.8637ZM23.1157 20.499L23.8042 20.7225L23.8185 20.7255C23.8718 20.744 23.918 20.7786 23.9507 20.8246C23.9834 20.8705 24.001 20.9256 24.001 20.982C24.001 21.0384 23.9834 21.0934 23.9507 21.1394C23.918 21.1853 23.8718 21.22 23.8185 21.2385L23.1292 21.462C22.9202 21.532 22.7302 21.6496 22.5743 21.8055C22.4184 21.9614 22.3008 22.1514 22.2307 22.3605L22.0065 23.049C21.9877 23.1019 21.9529 23.1477 21.907 23.1802C21.861 23.2126 21.8062 23.23 21.75 23.23C21.6938 23.23 21.639 23.2126 21.593 23.1802C21.5471 23.1477 21.5123 23.1019 21.4935 23.049L21.2692 22.3605C21.2001 22.1506 21.0829 21.9597 20.9269 21.8032C20.7709 21.6467 20.5804 21.5288 20.3707 21.459L19.6815 21.2355C19.6282 21.217 19.582 21.1823 19.5493 21.1364C19.5166 21.0904 19.499 21.0354 19.499 20.979C19.499 20.9226 19.5166 20.8675 19.5493 20.8216C19.582 20.7756 19.6282 20.741 19.6815 20.7225L20.3707 20.499C20.5773 20.4272 20.7646 20.3088 20.9181 20.153C21.0715 19.9971 21.1871 19.8081 21.2557 19.6005L21.48 18.912C21.4988 18.859 21.5336 18.8132 21.5795 18.7808C21.6255 18.7484 21.6803 18.731 21.7365 18.731C21.7927 18.731 21.8475 18.7484 21.8935 18.7808C21.9394 18.8132 21.9742 18.859 21.993 18.912L22.2165 19.6005C22.2861 19.8099 22.4036 20.0002 22.5598 20.1562C22.7159 20.3122 22.9063 20.4295 23.1157 20.499Z" fill="#FF6B00"/>
</g>
<defs>
<clipPath id="clip0_49_1833">
<rect width="24" height="24" fill="white" transform="translate(0 0.355469)"/>
</clipPath>
</defs>
</svg>
