<svg width="24" height="24" viewBox="0 0 24 24" fill="none" xmlns="http://www.w3.org/2000/svg">
<g clip-path="url(#clip0_62_2237)">
<path d="M17.4389 0.764893C16.5553 0.764893 15.6721 1.1263 15.132 1.84888C13.9548 0.702502 11.4385 1.20631 11.4385 3.3605C11.4385 3.67377 11.4919 3.95192 11.5864 4.19535H17.5351L19.5967 12.7312H16.0549L15.562 16.9696C17.2463 17.0116 18.963 15.9284 18.963 13.7186L18.9629 13.7109C19.672 13.767 20.409 13.5131 20.8613 12.9494C21.4742 13.5069 22.7295 13.2412 22.7295 12.1519C22.7295 11.2636 21.8949 10.9238 21.2544 11.1305C21.097 10.3326 20.547 9.82794 19.8926 9.61611C20.1335 9.28785 20.2817 8.86274 20.2817 8.3405C20.2817 7.31525 19.7114 6.66425 18.9871 6.38666C19.0013 6.31541 19.0089 6.23928 19.0089 6.15814C19.0089 6.07752 19.0013 6.00191 18.9873 5.93108C19.7333 5.49186 20.2729 4.69939 20.2729 3.55264C20.2729 1.69419 18.8559 0.764986 17.439 0.764893H17.4389ZM4.62658 1.86069C3.72508 1.85427 2.83361 2.36225 2.58142 3.52138C1.98376 6.26905 6.17336 7.18035 6.77111 4.43263C6.7937 4.32875 6.80861 4.22778 6.81798 4.1292C7.36848 4.2785 8.02361 4.05392 8.1827 3.32263C8.4557 2.06778 6.78067 1.5606 6.19576 2.46106C5.77614 2.07669 5.19939 1.86481 4.62658 1.86069ZM7.53826 5.07135L5.8997 11.8551H9.10905L10.0827 20.2289H14.3011L15.2747 11.8551H18.4839L16.8455 5.07139H7.53822L7.53826 5.07135ZM22.0147 5.60056C21.5083 5.60056 21.0018 5.93277 21.0018 6.59703C21.0018 7.92561 23.0275 7.92561 23.0275 6.59703C23.0275 5.93281 22.5211 5.60056 22.0146 5.60056H22.0147ZM7.92704 7.85047L11.0814 10.0643L7.37533 10.3961L7.92704 7.85047ZM16.4467 7.85047L16.9985 10.3961L13.2924 10.0643L16.4467 7.85047ZM21.675 8.29203C21.3266 8.29203 20.9783 8.52055 20.9783 8.97749C20.9783 9.89131 22.3718 9.89131 22.3718 8.97749C22.3718 8.52055 22.0234 8.29199 21.675 8.29199V8.29203ZM2.25587 8.88655C1.519 8.88655 0.781982 9.36983 0.781982 10.3364C0.781982 11.6468 2.13634 12.0687 3.00901 11.6025C3.06948 14.559 7.01064 14.9351 8.05886 12.731H4.78698L5.7062 8.92517C4.93295 8.91364 4.15445 9.19761 3.63376 9.77755C3.41101 9.18364 2.83351 8.88655 2.25587 8.88655ZM12.187 10.8109L13.6814 12.7843L12.983 13.3132L12.187 12.2619L11.3908 13.3132L10.6924 12.7843L12.187 10.8109ZM1.89283 12.7846C1.5444 12.7846 1.19608 13.013 1.19608 13.4699C1.19608 14.384 2.58948 14.384 2.58948 13.4699C2.58948 13.013 2.24115 12.7846 1.89283 12.7846ZM8.51261 14.3108C7.80072 14.3417 7.11151 14.8244 7.11151 15.7591C7.11151 16.1225 7.21558 16.4174 7.3848 16.6441C7.00253 16.9954 6.74973 17.5115 6.74973 18.1937C6.74973 19.3143 7.43083 19.9877 8.24992 20.2152C8.14023 20.3786 8.07386 20.5853 8.07386 20.8357C8.07386 22.1807 9.98739 22.2703 10.243 21.1049H9.30264L8.51261 14.3108ZM15.4147 18.2365L15.0811 21.1049H12.6317C13.1656 22.3445 14.8004 22.6296 15.8409 21.9605C16.0884 23.6344 18.7703 23.5492 18.7703 21.7052C18.7703 20.4898 17.6051 20.0387 16.7398 20.3517C16.7425 20.3031 16.7443 20.2539 16.7443 20.2035C16.7443 19.1617 16.1556 18.5063 15.4146 18.2365H15.4147ZM22.6114 18.5432C22.2766 18.5473 21.9373 18.8237 22.0514 19.2497C22.2436 19.967 23.3375 19.6739 23.1453 18.9565C23.0672 18.665 22.8404 18.5404 22.6114 18.5432ZM2.87401 19.5395C2.25831 19.5395 1.64261 19.9432 1.64261 20.7508C1.64261 21.5585 2.25854 21.9623 2.87425 21.9622C2.8615 22.0299 2.85516 22.0986 2.85531 22.1675C2.85531 23.4098 4.74953 23.4098 4.74953 22.1675C4.74953 21.6375 4.40476 21.3344 4.00951 21.2566C4.07045 21.1106 4.10537 20.9421 4.10537 20.7508C4.10537 19.9432 3.48972 19.5395 2.87401 19.5395ZM21.7031 20.239C21.4414 20.2422 21.178 20.3835 21.0615 20.622C20.4332 20.212 19.3569 20.7166 19.6096 21.6598C19.8929 22.7173 21.3472 22.4619 21.4686 21.5651C21.9211 21.6955 22.5101 21.3411 22.3487 20.7386C22.2543 20.3863 21.98 20.2356 21.7032 20.239H21.7031ZM6.09939 20.3261C5.75111 20.3261 5.40273 20.5546 5.40273 21.0115C5.40273 21.9254 6.79604 21.9254 6.79604 21.0115C6.79604 20.5545 6.44776 20.3261 6.09948 20.3261H6.09939Z" fill="#FF1500"/>
</g>
<defs>
<clipPath id="clip0_62_2237">
<rect width="24" height="24" fill="white"/>
</clipPath>
</defs>
</svg>
