<svg width="22" height="22" viewBox="0 0 22 22" fill="none" xmlns="http://www.w3.org/2000/svg">
<path d="M4.4043 3.02501C4.36992 3.02501 4.33125 3.02931 4.29688 3.03447C2.96527 3.26263 1.62938 6.21759 1.18594 7.28751H10.9312L11.4426 6.26056C10.9098 5.40119 9.92578 4.09666 8.9375 4.15166C8.28867 4.18603 7.04688 5.61173 7.04688 5.61173C7.04688 5.61173 5.52578 3.01169 4.4043 3.02501ZM12.7875 5.31095L11.4125 8.06095H7.98789L6.23906 12.143C7.18437 12.2848 8.01797 12.7746 8.60234 13.475H12.3664C12.5727 13.2258 12.809 13.0067 13.0711 12.8176L14.3 7.28751H16.4012L17.1016 5.31095H12.7875ZM0.902344 8.06095V11.4985L1.48543 11.6488L3.02371 8.06095H0.902344ZM3.86332 8.06095L2.24039 11.8465L3.33867 12.1344L5.0832 8.06095H3.86332ZM5.92539 8.06095L4.09406 12.332L4.25305 12.375C4.61484 12.2289 5.00586 12.1344 5.41406 12.1086L7.1457 8.06095H5.92539ZM14.9188 8.06095L13.9691 12.3363C14.3816 12.186 14.8328 12.1 15.2969 12.1C17.0285 12.1 18.5023 13.2645 18.9664 14.85H21.0977V11.391L19.0996 10.725L18.4336 8.06095H16.9426H14.9188ZM15.6836 8.66251H17.6602L18.1973 10.811H15.1465L15.6105 8.9547L15.6836 8.66251ZM5.67188 12.8735C3.98234 12.8735 2.62109 14.2356 2.62109 15.9242C2.62109 17.6129 3.98234 18.975 5.67188 18.975C7.36055 18.975 8.72266 17.6129 8.72266 15.9242C8.72266 14.2356 7.36055 12.8735 5.67188 12.8735ZM15.2969 12.8735C13.6082 12.8735 12.2461 14.2356 12.2461 15.9242C12.2461 17.6129 13.6082 18.975 15.2969 18.975C16.9855 18.975 18.3477 17.6129 18.3477 15.9242C18.3477 14.2356 16.9855 12.8735 15.2969 12.8735ZM1.52023 14.2485L0.987422 16.9125H1.97785C1.8932 16.5988 1.84766 16.2637 1.84766 15.9242C1.84766 15.3227 1.9873 14.7555 2.23609 14.2485H1.52023ZM9.10938 14.2485C9.3543 14.7555 9.49609 15.3227 9.49609 15.9242C9.49609 16.2637 9.44883 16.5988 9.36719 16.9125H11.6016C11.5199 16.5988 11.4727 16.2637 11.4727 15.9242C11.4727 15.3227 11.6145 14.7555 11.8594 14.2485H9.10938ZM5.67188 14.5492C6.03655 14.5492 6.38628 14.6941 6.64415 14.952C6.90201 15.2098 7.04688 15.5596 7.04688 15.9242C7.04688 16.2889 6.90201 16.6386 6.64415 16.8965C6.38628 17.1544 6.03655 17.2992 5.67188 17.2992C5.3072 17.2992 4.95747 17.1544 4.6996 16.8965C4.44174 16.6386 4.29688 16.2889 4.29688 15.9242C4.29688 15.5596 4.44174 15.2098 4.6996 14.952C4.95747 14.6941 5.3072 14.5492 5.67188 14.5492ZM15.2969 14.5492C15.6615 14.5492 16.0113 14.6941 16.2691 14.952C16.527 15.2098 16.6719 15.5596 16.6719 15.9242C16.6719 16.2889 16.527 16.6386 16.2691 16.8965C16.0113 17.1544 15.6615 17.2992 15.2969 17.2992C14.9322 17.2992 14.5825 17.1544 14.3246 16.8965C14.0667 16.6386 13.9219 16.2889 13.9219 15.9242C13.9219 15.5596 14.0667 15.2098 14.3246 14.952C14.5825 14.6941 14.9322 14.5492 15.2969 14.5492ZM19.1082 15.6235C19.1168 15.7223 19.1211 15.8211 19.1211 15.9242C19.1211 16.384 19.0395 16.8223 18.8891 17.2348L21.0977 16.3496V15.6235H19.1082Z" fill="black"/>
</svg>
