<svg width="24" height="25" viewBox="0 0 24 25" fill="none" xmlns="http://www.w3.org/2000/svg">
<path d="M20.0307 6.69697L12.1846 3.20774C12.1268 3.18059 12.0638 3.1665 12 3.1665C11.9361 3.1665 11.8731 3.18059 11.8153 3.20774L3.96918 6.69697C3.88805 6.73237 3.81881 6.79035 3.76971 6.86399C3.72061 6.93764 3.69373 7.02386 3.69226 7.11236V9.58621C3.69226 14.1277 6.40611 19.6293 11.8338 21.5308C11.9415 21.5674 12.0584 21.5674 12.1661 21.5308C17.5938 19.6293 20.3076 14.1277 20.3076 9.58621V7.11236C20.3062 7.02386 20.2793 6.93764 20.2302 6.86399C20.1811 6.79035 20.1119 6.73237 20.0307 6.69697ZM16.3273 9.75236L11.4535 15.9573C11.3826 16.0467 11.2938 16.1203 11.1926 16.1731C11.0914 16.2259 10.9803 16.2568 10.8664 16.2637L10.8184 16.2656C10.6038 16.2652 10.398 16.1799 10.2461 16.0284L7.73534 13.5176C7.58392 13.3658 7.499 13.1601 7.49926 12.9457C7.49952 12.7313 7.58494 12.5258 7.73672 12.3744C7.88851 12.2229 8.09423 12.138 8.30862 12.1383C8.52302 12.1385 8.72853 12.224 8.87995 12.3757L10.7464 14.2422L15.0572 8.75451C15.1919 8.59301 15.3843 8.49038 15.5935 8.4684C15.8027 8.44641 16.0122 8.50681 16.1776 8.63677C16.343 8.76673 16.4513 8.95602 16.4794 9.16448C16.5075 9.37293 16.4533 9.58414 16.3283 9.75328L16.3273 9.75236Z" fill="#FF6B00"/>
</svg>
