<svg width="25" height="24" viewBox="0 0 25 24" fill="none" xmlns="http://www.w3.org/2000/svg">
<path d="M14.8333 17C14.8333 18.65 13.4833 20 11.8333 20C10.1833 20 8.83331 18.65 8.83331 17H10.8333C10.8333 17.55 11.2833 18 11.8333 18C12.3833 18 12.8333 17.55 12.8333 17C12.8333 16.45 12.3833 16 11.8333 16H2.33331V14H11.8333C13.4833 14 14.8333 15.35 14.8333 17ZM19.3333 6.5C19.3333 4.57 17.7633 3 15.8333 3C13.9033 3 12.3333 4.57 12.3333 6.5H14.3333C14.3333 5.67 15.0033 5 15.8333 5C16.6633 5 17.3333 5.67 17.3333 6.5C17.3333 7.33 16.6633 8 15.8333 8H2.33331V10H15.8333C17.7633 10 19.3333 8.43 19.3333 6.5ZM18.8333 11H2.33331V13H18.8333C19.6633 13 20.3333 13.67 20.3333 14.5C20.3333 15.33 19.6633 16 18.8333 16V18C20.7633 18 22.3333 16.43 22.3333 14.5C22.3333 12.57 20.7633 11 18.8333 11Z" fill="#FF6B00"/>
</svg>
