<svg width="40" height="41" viewBox="0 0 40 41" fill="none" xmlns="http://www.w3.org/2000/svg">
<rect y="0.842773" width="40" height="40" rx="20" fill="white"/>
<path d="M29 20.8428C29 15.8928 24.95 11.8428 20 11.8428C15.05 11.8428 11 15.8928 11 20.8428C11 25.3428 14.2625 29.0553 18.5375 29.7303V23.4303H16.2875V20.8428H18.5375V18.8178C18.5375 16.5678 19.8875 15.3303 21.9125 15.3303C22.925 15.3303 23.9375 15.5553 23.9375 15.5553V17.8053H22.8125C21.6875 17.8053 21.35 18.4803 21.35 19.1553V20.8428H23.825L23.375 23.4303H21.2375V29.8428C25.7375 29.1678 29 25.3428 29 20.8428Z" fill="#0C1518"/>
</svg>
