<svg width="16" height="17" viewBox="0 0 16 17" fill="none" xmlns="http://www.w3.org/2000/svg">
<path d="M15.2333 4.345C15.0483 3.95829 14.7876 3.6126 14.4667 3.32833L11.9667 1.06167C11.4164 0.557294 10.7177 0.244494 9.975 0.170001H4.84167C4.28963 0.146592 3.73846 0.233212 3.22021 0.424819C2.70197 0.616426 2.22701 0.909194 1.82298 1.28609C1.41894 1.66298 1.09391 2.11646 0.86678 2.62015C0.639653 3.12384 0.514975 3.66767 0.5 4.22V12.8033C0.52948 13.6363 0.808078 14.4412 1.29979 15.1142C1.79151 15.7871 2.47374 16.2971 3.25833 16.5783C3.76843 16.7722 4.31341 16.8574 4.85833 16.8283H11.1583C11.7104 16.8517 12.2615 16.7651 12.7798 16.5735C13.298 16.3819 13.773 16.0891 14.177 15.7123C14.5811 15.3354 14.9061 14.8819 15.1332 14.3782C15.3603 13.8745 15.485 13.3307 15.5 12.7783V5.63667C15.504 5.19204 15.4131 4.75168 15.2333 4.345ZM4.4 4.01167H7.11667C7.33768 4.01167 7.54964 4.09947 7.70592 4.25575C7.8622 4.41203 7.95 4.62399 7.95 4.845C7.95 5.06601 7.8622 5.27798 7.70592 5.43426C7.54964 5.59054 7.33768 5.67833 7.11667 5.67833H4.4C4.17899 5.67833 3.96702 5.59054 3.81074 5.43426C3.65446 5.27798 3.56667 5.06601 3.56667 4.845C3.56667 4.62399 3.65446 4.41203 3.81074 4.25575C3.96702 4.09947 4.17899 4.01167 4.4 4.01167ZM11.65 12.9367H4.4C4.17899 12.9367 3.96702 12.8489 3.81074 12.6926C3.65446 12.5363 3.56667 12.3243 3.56667 12.1033C3.56667 11.8823 3.65446 11.6704 3.81074 11.5141C3.96702 11.3578 4.17899 11.27 4.4 11.27H11.65C11.8486 11.2983 12.0304 11.3973 12.1619 11.5489C12.2934 11.7004 12.3658 11.8944 12.3658 12.095C12.3658 12.2956 12.2934 12.4896 12.1619 12.6411C12.0304 12.7927 11.8486 12.8917 11.65 12.92V12.9367ZM11.65 9.31167H4.4C4.17899 9.31167 3.96702 9.22387 3.81074 9.06759C3.65446 8.91131 3.56667 8.69935 3.56667 8.47833C3.56667 8.25732 3.65446 8.04536 3.81074 7.88908C3.96702 7.7328 4.17899 7.645 4.4 7.645H11.65C11.871 7.645 12.083 7.7328 12.2393 7.88908C12.3955 8.04536 12.4833 8.25732 12.4833 8.47833C12.4833 8.69935 12.3955 8.91131 12.2393 9.06759C12.083 9.22387 11.871 9.31167 11.65 9.31167ZM11.3833 4.67C11.2644 4.6711 11.1465 4.64864 11.0364 4.6039C10.9262 4.55916 10.826 4.49304 10.7415 4.40936C10.6571 4.32568 10.59 4.22609 10.5443 4.11635C10.4985 4.00661 10.475 3.8889 10.475 3.77V1.56167C11.025 1.695 13.1667 3.895 13.6333 4.26167C13.7713 4.37793 13.8895 4.51584 13.9833 4.67H11.3833Z" fill="white"/>
</svg>
