<svg width="24" height="25" viewBox="0 0 24 25" fill="none" xmlns="http://www.w3.org/2000/svg">
<path d="M12 14.8428C11.7167 14.8428 11.4793 14.7468 11.288 14.5548C11.0967 14.3628 11.0007 14.1254 11 13.8428V6.84278C11 6.55944 11.096 6.32211 11.288 6.13078C11.48 5.93944 11.7173 5.84344 12 5.84278C12.2827 5.84211 12.5203 5.93811 12.713 6.13078C12.9057 6.32344 13.0013 6.56078 13 6.84278V13.8428C13 14.1261 12.904 14.3638 12.712 14.5558C12.52 14.7478 12.2827 14.8434 12 14.8428ZM12 19.8428C11.7167 19.8428 11.4793 19.7468 11.288 19.5548C11.0967 19.3628 11.0007 19.1254 11 18.8428C10.9993 18.5601 11.0953 18.3228 11.288 18.1308C11.4807 17.9388 11.718 17.8428 12 17.8428C12.282 17.8428 12.5197 17.9388 12.713 18.1308C12.9063 18.3228 13.002 18.5601 13 18.8428C12.998 19.1254 12.902 19.3631 12.712 19.5558C12.522 19.7484 12.2847 19.8441 12 19.8428Z" fill="#15FF00"/>
</svg>
