<svg width="24" height="25" viewBox="0 0 24 25" fill="none" xmlns="http://www.w3.org/2000/svg">
<path d="M6 2.59912C4.9 2.59912 4 3.49912 4 4.59912V20.5991C4 21.6991 4.9 22.5991 6 22.5991H10V20.6991L20 10.6991V8.59912L14 2.59912H6ZM13 4.09912L18.5 9.59912H13V4.09912ZM20.1 13.5991C20 13.5991 19.8 13.6991 19.7 13.7991L18.7 14.7991L20.8 16.8991L21.8 15.8991C22 15.6991 22 15.2991 21.8 15.0991L20.5 13.7991C20.4 13.6991 20.3 13.5991 20.1 13.5991ZM18.1 15.3991L12 21.4991V23.5991H14.1L20.2 17.4991L18.1 15.3991Z" fill="#FF6B00"/>
</svg>
