<svg width="24" height="25" viewBox="0 0 24 25" fill="none" xmlns="http://www.w3.org/2000/svg">
<path d="M7 15.8428H9C9 16.9228 10.37 17.8428 12 17.8428C13.63 17.8428 15 16.9228 15 15.8428C15 14.7428 13.96 14.3428 11.76 13.8128C9.64 13.2828 7 12.6228 7 9.84277C7 8.05277 8.47 6.53277 10.5 6.02277V3.84277H13.5V6.02277C15.53 6.53277 17 8.05277 17 9.84277H15C15 8.76277 13.63 7.84277 12 7.84277C10.37 7.84277 9 8.76277 9 9.84277C9 10.9428 10.04 11.3428 12.24 11.8728C14.36 12.4028 17 13.0628 17 15.8428C17 17.6328 15.53 19.1528 13.5 19.6628V21.8428H10.5V19.6628C8.47 19.1528 7 17.6328 7 15.8428Z" fill="#FF6B00"/>
</svg>
