<svg width="24" height="25" viewBox="0 0 24 25" fill="none" xmlns="http://www.w3.org/2000/svg">
<path fill-rule="evenodd" clip-rule="evenodd" d="M19 5.35547C19.7956 5.35547 20.5587 5.67154 21.1213 6.23415C21.6839 6.79676 22 7.55982 22 8.35547V16.3555C22 17.1511 21.6839 17.9142 21.1213 18.4768C20.5587 19.0394 19.7956 19.3555 19 19.3555H16.828C16.0328 19.355 15.2702 19.0389 14.708 18.4765L12.878 16.6485C12.6908 16.4612 12.4368 16.3558 12.172 16.3555H11.828C11.5628 16.3555 11.3085 16.4609 11.121 16.6485L9.293 18.4755C9.01457 18.7542 8.68395 18.9754 8.32003 19.1264C7.95611 19.2774 7.566 19.3553 7.172 19.3555H5C4.20435 19.3555 3.44129 19.0394 2.87868 18.4768C2.31607 17.9142 2 17.1511 2 16.3555V8.35547C2 7.55982 2.31607 6.79676 2.87868 6.23415C3.44129 5.67154 4.20435 5.35547 5 5.35547H19ZM16 9.35547C15.4696 9.35547 14.9609 9.56618 14.5858 9.94126C14.2107 10.3163 14 10.825 14 11.3555C14 11.8859 14.2107 12.3946 14.5858 12.7697C14.9609 13.1448 15.4696 13.3555 16 13.3555C16.5304 13.3555 17.0391 13.1448 17.4142 12.7697C17.7893 12.3946 18 11.8859 18 11.3555C18 10.825 17.7893 10.3163 17.4142 9.94126C17.0391 9.56618 16.5304 9.35547 16 9.35547ZM8 9.35547C7.46957 9.35547 6.96086 9.56618 6.58579 9.94126C6.21071 10.3163 6 10.825 6 11.3555C6 11.8859 6.21071 12.3946 6.58579 12.7697C6.96086 13.1448 7.46957 13.3555 8 13.3555C8.53043 13.3555 9.03914 13.1448 9.41421 12.7697C9.78929 12.3946 10 11.8859 10 11.3555C10 10.825 9.78929 10.3163 9.41421 9.94126C9.03914 9.56618 8.53043 9.35547 8 9.35547Z" fill="#FF6B00"/>
</svg>
