<svg width="16" height="18" viewBox="0 0 16 18" fill="none" xmlns="http://www.w3.org/2000/svg">
<path d="M2.00004 0.166656C1.08337 0.166656 0.333374 0.916656 0.333374 1.83332V15.1667C0.333374 16.0833 1.08337 16.8333 2.00004 16.8333H5.33337V15.25L13.6667 6.91666V5.16666L8.66671 0.166656H2.00004ZM7.83337 1.41666L12.4167 5.99999H7.83337V1.41666ZM13.75 9.33332C13.6667 9.33332 13.5 9.41666 13.4167 9.49999L12.5834 10.3333L14.3334 12.0833L15.1667 11.25C15.3334 11.0833 15.3334 10.75 15.1667 10.5833L14.0834 9.49999C14 9.41666 13.9167 9.33332 13.75 9.33332ZM12.0834 10.8333L7.00004 15.9167V17.6667H8.75004L13.8334 12.5833L12.0834 10.8333Z" fill="white"/>
</svg>
