<svg width="25" height="24" viewBox="0 0 25 24" fill="none" xmlns="http://www.w3.org/2000/svg">
<path d="M13.7917 14.631V6.46947H10.7917V14.6295C9.73941 15.1755 9.01116 16.2645 9.01116 17.532C9.02409 18.3937 9.37547 19.2158 9.98941 19.8207C10.6033 20.4255 11.4306 20.7646 12.2924 20.7647C13.1543 20.7648 13.9816 20.4259 14.5956 19.8212C15.2097 19.2165 15.5613 18.3945 15.5744 17.5327C15.5744 16.2652 14.8469 15.1762 13.7924 14.6317L13.7917 14.631ZM16.0417 3.93597C16.0417 1.86897 14.3587 0.185974 12.2917 0.185974C10.2247 0.185974 8.54166 1.86972 8.54166 3.93597V13.4812C7.97932 13.9952 7.53043 14.6209 7.22371 15.3183C6.917 16.0157 6.7592 16.7694 6.76041 17.5312C6.76041 20.5807 9.24291 23.064 12.2924 23.064C15.3419 23.064 17.8237 20.5815 17.8237 17.5312C17.8237 15.9667 17.1652 14.5087 16.0424 13.4797V3.93747L16.0417 3.93597ZM16.3229 17.5335C16.3213 18.6019 15.896 19.6261 15.1403 20.3815C14.3846 21.1368 13.3601 21.5615 12.2917 21.5625C11.2233 21.5611 10.1992 21.1361 9.44373 20.3807C8.68831 19.6252 8.2633 18.6011 8.26191 17.5327C8.26191 16.1865 8.93391 14.9505 10.0439 14.2042V3.93747C10.0439 2.69772 11.0512 1.68747 12.2917 1.68747C13.5322 1.68747 14.5417 2.69697 14.5417 3.93747V14.205C15.0897 14.57 15.539 15.0648 15.8498 15.6454C16.1605 16.2259 16.3231 16.875 16.3229 17.5335ZM17.2304 6.46947L20.6054 8.41797V4.52247L17.2304 6.46947Z" fill="#15FF00"/>
</svg>
