<svg width="18" height="17" viewBox="0 0 18 17" fill="none" xmlns="http://www.w3.org/2000/svg">
<path d="M14.8333 1.83334H14V1.00001C14 0.500005 13.6666 0.166672 13.1666 0.166672C12.6666 0.166672 12.3333 0.500005 12.3333 1.00001V1.83334H5.66663V1.00001C5.66663 0.500005 5.33329 0.166672 4.83329 0.166672C4.33329 0.166672 3.99996 0.500005 3.99996 1.00001V1.83334H3.16663C1.74996 1.83334 0.666626 2.91667 0.666626 4.33334V5.16667H17.3333V4.33334C17.3333 2.91667 16.25 1.83334 14.8333 1.83334ZM0.666626 14.3333C0.666626 15.75 1.74996 16.8333 3.16663 16.8333H14.8333C16.25 16.8333 17.3333 15.75 17.3333 14.3333V6.83334H0.666626V14.3333ZM13.1666 8.5C13.6666 8.5 14 8.83334 14 9.33334C14 9.83334 13.6666 10.1667 13.1666 10.1667C12.6666 10.1667 12.3333 9.83334 12.3333 9.33334C12.3333 8.83334 12.6666 8.5 13.1666 8.5ZM13.1666 11.8333C13.6666 11.8333 14 12.1667 14 12.6667C14 13.1667 13.6666 13.5 13.1666 13.5C12.6666 13.5 12.3333 13.1667 12.3333 12.6667C12.3333 12.1667 12.6666 11.8333 13.1666 11.8333ZM8.99996 8.5C9.49996 8.5 9.83329 8.83334 9.83329 9.33334C9.83329 9.83334 9.49996 10.1667 8.99996 10.1667C8.49996 10.1667 8.16663 9.83334 8.16663 9.33334C8.16663 8.83334 8.49996 8.5 8.99996 8.5ZM8.99996 11.8333C9.49996 11.8333 9.83329 12.1667 9.83329 12.6667C9.83329 13.1667 9.49996 13.5 8.99996 13.5C8.49996 13.5 8.16663 13.1667 8.16663 12.6667C8.16663 12.1667 8.49996 11.8333 8.99996 11.8333ZM4.83329 8.5C5.33329 8.5 5.66663 8.83334 5.66663 9.33334C5.66663 9.83334 5.33329 10.1667 4.83329 10.1667C4.33329 10.1667 3.99996 9.83334 3.99996 9.33334C3.99996 8.83334 4.33329 8.5 4.83329 8.5ZM4.83329 11.8333C5.33329 11.8333 5.66663 12.1667 5.66663 12.6667C5.66663 13.1667 5.33329 13.5 4.83329 13.5C4.33329 13.5 3.99996 13.1667 3.99996 12.6667C3.99996 12.1667 4.33329 11.8333 4.83329 11.8333Z" fill="white"/>
</svg>
