<svg width="24" height="24" viewBox="0 0 24 24" fill="none" xmlns="http://www.w3.org/2000/svg">
<path d="M9.88299 2.20691C10.3587 2.15085 10.8379 2.27651 11.2249 2.55872C11.6119 2.84093 11.878 3.25888 11.97 3.72891L11.995 3.89591L12 3.99991V10.9999C12 11.2448 12.0899 11.4812 12.2527 11.6643C12.4155 11.8473 12.6397 11.9643 12.883 11.9929L13 11.9999H19.8C20.3304 11.9999 20.8391 12.2106 21.2142 12.5857C21.5893 12.9608 21.8 13.4695 21.8 13.9999C21.7999 14.076 21.7912 14.1518 21.774 14.2259C21.3738 15.9526 20.5219 17.5418 19.3055 18.831C18.0891 20.1201 16.5519 21.0628 14.8513 21.5624C13.1508 22.0621 11.348 22.1008 9.62757 21.6746C7.90715 21.2484 6.33092 20.3726 5.06029 19.1369C3.78967 17.9011 2.87031 16.3499 2.39636 14.642C1.92242 12.9341 1.91092 11.1309 2.36305 9.41715C2.81517 7.70336 3.71468 6.14052 4.96944 4.88869C6.22421 3.63686 7.78914 2.74102 9.50399 2.29291L9.77399 2.22591L9.88299 2.20691Z" fill="#FF6B00"/>
<path d="M14 3.49983V8.99983C14 9.26505 14.1054 9.5194 14.2929 9.70694C14.4804 9.89447 14.7348 9.99983 15 9.99983H20.5C20.6598 9.99978 20.8173 9.96143 20.9593 9.88797C21.1013 9.81451 21.2235 9.7081 21.3159 9.57764C21.4082 9.44719 21.468 9.2965 21.4901 9.1382C21.5122 8.9799 21.4961 8.8186 21.443 8.66783C20.9463 7.25716 20.1396 5.97586 19.0822 4.91826C18.0248 3.86067 16.7436 3.05372 15.333 2.55683C15.1822 2.50356 15.0208 2.48726 14.8623 2.50928C14.7039 2.5313 14.5531 2.591 14.4225 2.68338C14.2919 2.77576 14.1854 2.89812 14.1119 3.04018C14.0383 3.18225 14 3.33987 14 3.49983Z" fill="#FF6B00"/>
</svg>
