<svg width="24" height="25" viewBox="0 0 24 25" fill="none" xmlns="http://www.w3.org/2000/svg">
<path d="M15.336 9.61912C15.2448 9.61887 15.1547 9.59942 15.0714 9.56203C14.9882 9.52465 14.9138 9.47016 14.853 9.40212L14.21 8.67612C14.1625 8.62275 14.1042 8.58005 14.0389 8.55081C13.9737 8.52156 13.903 8.50644 13.8315 8.50644C13.76 8.50644 13.6894 8.52156 13.6241 8.55081C13.5589 8.58005 13.5006 8.62275 13.453 8.67612L12.901 9.29912C12.8119 9.40034 12.7022 9.4814 12.5792 9.53692C12.4563 9.59244 12.3229 9.62115 12.188 9.62112H3.50803C3.25723 10.3385 3.0983 11.0848 3.03503 11.8421H11.231C11.3021 11.8418 11.3723 11.8272 11.4376 11.7992C11.5029 11.7712 11.5618 11.7304 11.611 11.6791L12.375 10.8831C12.4221 10.8338 12.4787 10.7945 12.5415 10.7679C12.6043 10.7412 12.6718 10.7277 12.74 10.7281H12.771C12.916 10.7281 13.054 10.7891 13.15 10.8981L13.793 11.6241C13.8537 11.6923 13.9281 11.747 14.0113 11.7846C14.0945 11.8221 14.1847 11.8417 14.276 11.8421H20.966C20.9028 11.0848 20.7438 10.3385 20.493 9.62112L15.336 9.61912ZM7.99503 16.5131C8.06606 16.5128 8.13631 16.4982 8.20159 16.4702C8.26686 16.4422 8.32585 16.4014 8.37503 16.3501L9.13903 15.5541C9.186 15.5046 9.24262 15.4652 9.30539 15.4383C9.36816 15.4115 9.43577 15.3978 9.50403 15.3981H9.53503C9.68003 15.3981 9.81803 15.4601 9.91403 15.5681L10.557 16.2951C10.6177 16.3633 10.6921 16.418 10.7753 16.4556C10.8585 16.4931 10.9487 16.5127 11.04 16.5131H20.106C20.446 15.8111 20.694 15.0571 20.842 14.2691H12.141C12.0498 14.2689 11.9597 14.2494 11.8764 14.212C11.7932 14.1746 11.7188 14.1202 11.658 14.0521L11.015 13.3251C10.9675 13.2718 10.9092 13.229 10.8439 13.1998C10.7787 13.1706 10.708 13.1554 10.6365 13.1554C10.565 13.1554 10.4944 13.1706 10.4291 13.1998C10.3639 13.229 10.3056 13.2718 10.258 13.3251L9.70603 13.9491C9.61677 14.0502 9.50702 14.131 9.38409 14.1864C9.26116 14.2417 9.12785 14.2703 8.99303 14.2701H3.15803C3.30603 15.0591 3.55503 15.8121 3.89503 16.5131H7.99503ZM14.426 7.19312C14.4974 7.19307 14.568 7.17861 14.6337 7.1506C14.6993 7.12259 14.7586 7.08161 14.808 7.03012L15.571 6.23412C15.618 6.18488 15.6745 6.14574 15.7371 6.11909C15.7996 6.09244 15.867 6.07884 15.935 6.07912H15.967C16.111 6.07912 16.25 6.14012 16.345 6.24912L16.988 6.97612C17.0489 7.04429 17.1235 7.09885 17.2069 7.13624C17.2903 7.17363 17.3806 7.19301 17.472 7.19312H19.195C18.3572 6.0767 17.271 5.17069 16.0223 4.54688C14.7736 3.92307 13.3969 3.59858 12.001 3.59912C10.605 3.59842 9.22807 3.92284 7.97921 4.54666C6.73036 5.17048 5.64394 6.07656 4.80603 7.19312H14.426ZM8.60603 18.7371C8.51456 18.7369 8.42417 18.7173 8.34077 18.6798C8.25736 18.6422 8.18283 18.5875 8.12203 18.5191L7.47903 17.7931C7.43148 17.7399 7.37323 17.6974 7.30809 17.6682C7.24295 17.6391 7.17239 17.624 7.10103 17.624C7.02967 17.624 6.95912 17.6391 6.89398 17.6682C6.82884 17.6974 6.77059 17.7399 6.72303 17.7931L6.17103 18.4161C6.08177 18.5172 5.97202 18.598 5.84909 18.6534C5.72616 18.7087 5.59285 18.7373 5.45803 18.7371H5.42103C6.26178 19.6413 7.28016 20.3623 8.41239 20.8547C9.54462 21.3472 10.7663 21.6006 12.001 21.5991C13.2354 21.6003 14.4567 21.3468 15.5886 20.8543C16.7205 20.3619 17.7385 19.6411 18.579 18.7371H8.60603Z" fill="#FF6B00"/>
</svg>
