<svg width="18" height="17" viewBox="0 0 18 17" fill="none" xmlns="http://www.w3.org/2000/svg">
<path fill-rule="evenodd" clip-rule="evenodd" d="M14.8333 0.666656C15.4963 0.666656 16.1322 0.930049 16.6011 1.39889C17.0699 1.86773 17.3333 2.50362 17.3333 3.16666V9.83332C17.3333 10.4964 17.0699 11.1322 16.6011 11.6011C16.1322 12.0699 15.4963 12.3333 14.8333 12.3333H13.0233C12.3606 12.333 11.7252 12.0695 11.2566 11.6008L9.73163 10.0775C9.57559 9.9214 9.364 9.83359 9.14329 9.83332H8.85663C8.63563 9.83337 8.4237 9.9212 8.26746 10.0775L6.74413 11.6C6.5121 11.8323 6.23659 12.0166 5.93332 12.1425C5.63005 12.2683 5.30496 12.3331 4.97663 12.3333H3.16663C2.50358 12.3333 1.8677 12.0699 1.39886 11.6011C0.930018 11.1322 0.666626 10.4964 0.666626 9.83332V3.16666C0.666626 2.50362 0.930018 1.86773 1.39886 1.39889C1.8677 0.930049 2.50358 0.666656 3.16663 0.666656H14.8333ZM12.3333 3.99999C11.8913 3.99999 11.4673 4.17558 11.1548 4.48815C10.8422 4.80071 10.6666 5.22463 10.6666 5.66666C10.6666 6.10868 10.8422 6.53261 11.1548 6.84517C11.4673 7.15773 11.8913 7.33332 12.3333 7.33332C12.7753 7.33332 13.1992 7.15773 13.5118 6.84517C13.8244 6.53261 14 6.10868 14 5.66666C14 5.22463 13.8244 4.80071 13.5118 4.48815C13.1992 4.17558 12.7753 3.99999 12.3333 3.99999ZM5.66663 3.99999C5.2246 3.99999 4.80067 4.17558 4.48811 4.48815C4.17555 4.80071 3.99996 5.22463 3.99996 5.66666C3.99996 6.10868 4.17555 6.53261 4.48811 6.84517C4.80067 7.15773 5.2246 7.33332 5.66663 7.33332C6.10865 7.33332 6.53258 7.15773 6.84514 6.84517C7.1577 6.53261 7.33329 6.10868 7.33329 5.66666C7.33329 5.22463 7.1577 4.80071 6.84514 4.48815C6.53258 4.17558 6.10865 3.99999 5.66663 3.99999Z" fill="white"/>
</svg>
