<svg width="16" height="15" viewBox="0 0 16 15" fill="none" xmlns="http://www.w3.org/2000/svg">
<path d="M10.78 5.01667C10.704 5.01646 10.6289 5.00025 10.5595 4.96909C10.4902 4.93794 10.4282 4.89253 10.3775 4.83583L9.84167 4.23083C9.80204 4.18636 9.75345 4.15077 9.69909 4.1264C9.64473 4.10203 9.58583 4.08944 9.52626 4.08944C9.46669 4.08944 9.40779 4.10203 9.35343 4.1264C9.29907 4.15077 9.25048 4.18636 9.21084 4.23083L8.75084 4.75C8.67653 4.83435 8.58511 4.9019 8.48266 4.94817C8.38021 4.99444 8.26909 5.01836 8.15667 5.01833H0.923341C0.714336 5.61616 0.581893 6.23806 0.529175 6.86917H7.35917C7.41837 6.8689 7.4769 6.85674 7.5313 6.83341C7.5857 6.81007 7.63485 6.77604 7.67584 6.73333L8.31251 6.07C8.35172 6.02887 8.39893 5.99619 8.45124 5.97397C8.50355 5.95176 8.55985 5.94048 8.61667 5.94083H8.64251C8.76334 5.94083 8.87834 5.99167 8.95834 6.0825L9.49417 6.6875C9.54474 6.74435 9.60672 6.78991 9.67607 6.82121C9.74542 6.85251 9.82059 6.86885 9.89668 6.86917H15.4717C15.419 6.23806 15.2865 5.61616 15.0775 5.01833L10.78 5.01667ZM4.66251 10.7617C4.7217 10.7614 4.78024 10.7492 4.83463 10.7259C4.88903 10.7026 4.93819 10.6685 4.97917 10.6258L5.61584 9.9625C5.65498 9.92122 5.70216 9.88838 5.75447 9.86602C5.80678 9.84367 5.86312 9.83226 5.92001 9.8325H5.94584C6.06667 9.8325 6.18167 9.88417 6.26167 9.97417L6.79751 10.58C6.84808 10.6369 6.91005 10.6824 6.9794 10.7137C7.04875 10.745 7.12392 10.7614 7.20001 10.7617H14.755C15.0383 10.1767 15.245 9.54833 15.3683 8.89167H8.11751C8.04148 8.89146 7.96636 8.87525 7.89701 8.84409C7.82766 8.81294 7.76565 8.76753 7.71501 8.71083L7.17917 8.105C7.13954 8.06053 7.09095 8.02494 7.03659 8.00057C6.98223 7.9762 6.92333 7.9636 6.86376 7.9636C6.80419 7.9636 6.74529 7.9762 6.69093 8.00057C6.63657 8.02494 6.58798 8.06053 6.54834 8.105L6.08834 8.625C6.01396 8.7092 5.9225 8.77659 5.82006 8.82271C5.71761 8.86884 5.60652 8.89263 5.49417 8.8925H0.631675C0.755008 9.55 0.962508 10.1775 1.24584 10.7617H4.66251ZM10.0217 2.995C10.0811 2.99496 10.14 2.98291 10.1947 2.95956C10.2494 2.93622 10.2988 2.90208 10.34 2.85917L10.9758 2.19583C11.015 2.1548 11.062 2.12218 11.1142 2.09997C11.1663 2.07776 11.2225 2.06643 11.2792 2.06667H11.3058C11.4258 2.06667 11.5417 2.1175 11.6208 2.20833L12.1567 2.81417C12.2074 2.87097 12.2696 2.91644 12.3391 2.9476C12.4086 2.97876 12.4838 2.99491 12.56 2.995H13.9958C13.2977 2.06465 12.3925 1.30964 11.3519 0.789799C10.3113 0.269954 9.16403 -0.000451905 8.00084 9.38539e-07C6.83752 -0.000581318 5.69004 0.269762 4.64932 0.789613C3.60861 1.30946 2.70326 2.06453 2.00501 2.995H10.0217ZM5.17167 12.615C5.09545 12.6148 5.02012 12.5985 4.95062 12.5672C4.88112 12.5359 4.819 12.4903 4.76834 12.4333L4.23251 11.8283C4.19288 11.784 4.14433 11.7485 4.09005 11.7242C4.03577 11.7 3.97697 11.6874 3.91751 11.6874C3.85804 11.6874 3.79924 11.7 3.74496 11.7242C3.69068 11.7485 3.64214 11.784 3.60251 11.8283L3.14251 12.3475C3.06812 12.4317 2.97667 12.4991 2.87422 12.5452C2.77178 12.5913 2.66069 12.6151 2.54834 12.615H2.51751C3.21813 13.3685 4.06678 13.9693 5.0103 14.3797C5.95383 14.7901 6.97193 15.0012 8.00084 15C9.02948 15.001 10.0472 14.7897 10.9905 14.3793C11.9337 13.969 12.7821 13.3683 13.4825 12.615H5.17167Z" fill="white"/>
</svg>
